<?xml version="1.0" encoding="utf-8"?>
<!-- Generator: Adobe Illustrator 24.0.0, SVG Export Plug-In . SVG Version: 6.00 Build 0)  -->
<svg version="1.1" id="Layer_1" xmlns="http://www.w3.org/2000/svg" xmlns:xlink="http://www.w3.org/1999/xlink" x="0px" y="0px"
	 viewBox="0 0 578 385" style="enable-background:new 0 0 578 385;" xml:space="preserve">
<style type="text/css">
	.st0{fill:#777777;}
	.st1{fill:url(#SVGID_1_);}
	.st2{opacity:0.1;fill:#2A2A2A;enable-background:new    ;}
	.st3{fill:#E8EAF6;}
	.st4{filter:url(#Adobe_OpacityMaskFilter);}
	.st5{fill-rule:evenodd;clip-rule:evenodd;fill:#FFFFFF;}
	.st6{mask:url(#f_1_);}
	.st7{fill-rule:evenodd;clip-rule:evenodd;fill:#5267DF;}
	.st8{opacity:0.245;fill-rule:evenodd;clip-rule:evenodd;fill:#FFFFFF;enable-background:new    ;}
	.st9{opacity:0.104;fill-rule:evenodd;clip-rule:evenodd;fill:#FFFFFF;enable-background:new    ;}
	.st10{opacity:0.75;fill-rule:evenodd;clip-rule:evenodd;fill:#FFFFFF;enable-background:new    ;}
	.st11{opacity:0.25;fill-rule:evenodd;clip-rule:evenodd;fill:#FFFFFF;enable-background:new    ;}
	.st12{filter:url(#Adobe_OpacityMaskFilter_1_);}
	.st13{mask:url(#f_2_);}
	.st14{opacity:0.5;fill-rule:evenodd;clip-rule:evenodd;fill:#242A45;enable-background:new    ;}
	.st15{fill-rule:evenodd;clip-rule:evenodd;fill:#F98E5D;}
	.st16{opacity:0.25;fill-rule:evenodd;clip-rule:evenodd;fill:#242A45;enable-background:new    ;}
	.st17{fill-rule:evenodd;clip-rule:evenodd;fill:#6AC6D6;}
	.st18{fill-rule:evenodd;clip-rule:evenodd;fill:#A47ED4;}
	.st19{fill-rule:evenodd;clip-rule:evenodd;fill:#EC7878;}
</style>
<g>
	<g>
		<path id="c" d="M26,0h526c14.4,0,26,11.6,26,26v333c0,14.4-11.6,26-26,26H26c-14.4,0-26-11.6-26-26V26C0,11.6,11.6,0,26,0z"/>
	</g>
	<g>
		<path id="c_1_" class="st0" d="M26,0h526c14.4,0,26,11.6,26,26v333c0,14.4-11.6,26-26,26H26c-14.4,0-26-11.6-26-26V26
			C0,11.6,11.6,0,26,0z"/>
	</g>
</g>
<linearGradient id="SVGID_1_" gradientUnits="userSpaceOnUse" x1="-7.5639" y1="643.1807" x2="-8.5285" y2="643.6073" gradientTransform="matrix(574.23 0 0 -381.865 4913.9551 245883.8906)">
	<stop  offset="0" style="stop-color:#151515"/>
	<stop  offset="1" style="stop-color:#3D3D3D"/>
</linearGradient>
<path class="st1" d="M27,2h524.2c13.8,0,25,11.2,25,25v331.9c0,13.8-11.2,25-25,25H27c-13.8,0-25-11.2-25-25V27C2,13.2,13.2,2,27,2z
	"/>
<path class="st2" d="M59,16.3h461.5c2.8,0,5,2.2,5,5v343.8c0,2.8-2.2,5-5,5H59c-2.8,0-5-2.2-5-5V21.3C54,18.5,56.3,16.3,59,16.3z"/>
<g>
	<path id="e_1_" class="st3" d="M29,19.3h520c4.4,0,8,3.6,8,8v330c0,4.4-3.6,8-8,8H29c-4.4,0-8-3.6-8-8v-330
		C21,22.9,24.6,19.3,29,19.3z"/>
</g>
<defs>
	<filter id="Adobe_OpacityMaskFilter" filterUnits="userSpaceOnUse" x="17.5" y="19.5" width="547" height="59">
		<feColorMatrix  type="matrix" values="1 0 0 0 0  0 1 0 0 0  0 0 1 0 0  0 0 0 1 0"/>
	</filter>
</defs>
<mask maskUnits="userSpaceOnUse" x="17.5" y="19.5" width="547" height="59" id="f_1_">
	<g class="st4">
		<path id="e_2_" class="st5" d="M29,19.3h520c4.4,0,8,3.6,8,8v330c0,4.4-3.6,8-8,8H29c-4.4,0-8-3.6-8-8v-330
			C21,22.9,24.6,19.3,29,19.3z"/>
	</g>
</mask>
<g class="st6">
	<path class="st7" d="M17.5,19.5h547v59h-547L17.5,19.5z"/>
	<g transform="translate(22.47 17.197)">
		<circle class="st8" cx="37" cy="32.3" r="16"/>
		<circle class="st9" cx="498" cy="32.3" r="16"/>
		<g transform="translate(47 6)">
			<path class="st10" d="M24,16.3h114c1.7,0,3,1.3,3,3l0,0c0,1.7-1.3,3-3,3H24c-1.7,0-3-1.3-3-3l0,0C21,17.6,22.4,16.3,24,16.3z"/>
			<path class="st11" d="M24,30.3h58c1.7,0,3,1.3,3,3l0,0c0,1.7-1.3,3-3,3H24c-1.7,0-3-1.3-3-3l0,0C21,31.6,22.4,30.3,24,30.3z"/>
		</g>
	</g>
</g>
<defs>
	<filter id="Adobe_OpacityMaskFilter_1_" filterUnits="userSpaceOnUse" x="78" y="112.3" width="423" height="272.7">
		<feColorMatrix  type="matrix" values="1 0 0 0 0  0 1 0 0 0  0 0 1 0 0  0 0 0 1 0"/>
	</filter>
</defs>
<mask maskUnits="userSpaceOnUse" x="78" y="112.3" width="423" height="272.7" id="f_2_">
	<g class="st12">
		<path id="e_3_" class="st5" d="M29,19.3h520c4.4,0,8,3.6,8,8v330c0,4.4-3.6,8-8,8H29c-4.4,0-8-3.6-8-8v-330
			C21,22.9,24.6,19.3,29,19.3z"/>
	</g>
</mask>
<g class="st13">
	<g transform="translate(57 96)">
		<path class="st5" d="M21,289V24.3c0-4.4,3.6-8,8-8h245c4.4,0,8,3.6,8,8V289"/>
		<path class="st5" d="M316,289V24.3c0-4.4,3.6-8,8-8h112c4.4,0,8,3.6,8,8V289"/>
		<path class="st14" d="M102.5,54.5h114c1.7,0,3,1.3,3,3l0,0c0,1.7-1.3,3-3,3h-114c-1.7,0-3-1.3-3-3l0,0
			C99.5,55.8,100.8,54.5,102.5,54.5z"/>
	</g>
</g>
<g transform="translate(110 135)">
	<circle class="st15" cx="15.5" cy="25.5" r="16"/>
	<path class="st16" d="M286.5-0.5h82c1.7,0,3,1.3,3,3l0,0c0,1.7-1.3,3-3,3h-82c-1.7,0-3-1.3-3-3l0,0C283.5,0.8,284.8-0.5,286.5-0.5z
		"/>
	<path class="st16" d="M286.5,19.5h82c1.7,0,3,1.3,3,3l0,0c0,1.7-1.3,3-3,3h-82c-1.7,0-3-1.3-3-3l0,0
		C283.5,20.8,284.8,19.5,286.5,19.5z"/>
	<path class="st16" d="M286.5,39.5h82c1.7,0,3,1.3,3,3l0,0c0,1.7-1.3,3-3,3h-82c-1.7,0-3-1.3-3-3l0,0
		C283.5,40.8,284.8,39.5,286.5,39.5z"/>
	<path class="st16" d="M286.5,59.5h82c1.7,0,3,1.3,3,3l0,0c0,1.7-1.3,3-3,3h-82c-1.7,0-3-1.3-3-3l0,0
		C283.5,60.8,284.8,59.5,286.5,59.5z"/>
	<path class="st16" d="M286.5,93.5h82c1.7,0,3,1.3,3,3l0,0c0,1.7-1.3,3-3,3h-82c-1.7,0-3-1.3-3-3l0,0
		C283.5,94.8,284.8,93.5,286.5,93.5z"/>
	<path class="st16" d="M286.5,113.5h82c1.7,0,3,1.3,3,3l0,0c0,1.7-1.3,3-3,3h-82c-1.7,0-3-1.3-3-3l0,0
		C283.5,114.8,284.8,113.5,286.5,113.5z"/>
	<path class="st16" d="M286.5,133.5h82c1.7,0,3,1.3,3,3l0,0c0,1.7-1.3,3-3,3h-82c-1.7,0-3-1.3-3-3l0,0
		C283.5,134.8,284.8,133.5,286.5,133.5z"/>
	<path class="st16" d="M49.5,29.5h58c1.7,0,3,1.3,3,3l0,0c0,1.7-1.3,3-3,3h-58c-1.7,0-3-1.3-3-3l0,0C46.5,30.8,47.8,29.5,49.5,29.5z
		"/>
</g>
<g transform="translate(110 201)">
	<circle class="st17" cx="15.5" cy="15.5" r="16"/>
	<path class="st14" d="M49.5,5.5h114c1.7,0,3,1.3,3,3l0,0c0,1.7-1.3,3-3,3h-114c-1.7,0-3-1.3-3-3l0,0C46.5,6.8,47.8,5.5,49.5,5.5z"
		/>
	<path class="st16" d="M49.5,19.5h58c1.7,0,3,1.3,3,3l0,0c0,1.7-1.3,3-3,3h-58c-1.7,0-3-1.3-3-3l0,0C46.5,20.8,47.8,19.5,49.5,19.5z
		"/>
</g>
<g transform="translate(110 257)">
	<circle class="st18" cx="15.5" cy="15.5" r="16"/>
	<path class="st14" d="M49.5,5.5h114c1.7,0,3,1.3,3,3l0,0c0,1.7-1.3,3-3,3h-114c-1.7,0-3-1.3-3-3l0,0C46.5,6.8,47.8,5.5,49.5,5.5z"
		/>
	<path class="st16" d="M49.5,19.5h58c1.7,0,3,1.3,3,3l0,0c0,1.7-1.3,3-3,3h-58c-1.7,0-3-1.3-3-3l0,0C46.5,20.8,47.8,19.5,49.5,19.5z
		"/>
</g>
<g transform="translate(110 313)">
	<circle class="st19" cx="15.5" cy="15.5" r="16"/>
	<path class="st14" d="M49.5,5.5h114c1.7,0,3,1.3,3,3l0,0c0,1.7-1.3,3-3,3h-114c-1.7,0-3-1.3-3-3l0,0C46.5,6.8,47.8,5.5,49.5,5.5z"
		/>
	<path class="st16" d="M49.5,19.5h58c1.7,0,3,1.3,3,3l0,0c0,1.7-1.3,3-3,3h-58c-1.7,0-3-1.3-3-3l0,0C46.5,20.8,47.8,19.5,49.5,19.5z
		"/>
</g>
</svg>
