<?xml version="1.0" encoding="utf-8"?>
<!-- Generator: Adobe Illustrator 24.0.0, SVG Export Plug-In . SVG Version: 6.00 Build 0)  -->
<svg version="1.1" id="Layer_1" xmlns="http://www.w3.org/2000/svg" xmlns:xlink="http://www.w3.org/1999/xlink" x="0px" y="0px"
	 viewBox="0 0 536 409" style="enable-background:new 0 0 536 409;" xml:space="preserve">
<style type="text/css">
	.st0{fill:#E8EAF6;}
	.st1{filter:url(#Adobe_OpacityMaskFilter);}
	.st2{fill-rule:evenodd;clip-rule:evenodd;fill:#FFFFFF;}
	.st3{mask:url(#b_1_);}
	.st4{fill-rule:evenodd;clip-rule:evenodd;fill:#242A45;}
	.st5{opacity:0.245;fill-rule:evenodd;clip-rule:evenodd;fill:#FFFFFF;enable-background:new    ;}
	.st6{opacity:0.104;fill-rule:evenodd;clip-rule:evenodd;fill:#FFFFFF;enable-background:new    ;}
	.st7{opacity:0.75;fill-rule:evenodd;clip-rule:evenodd;fill:#FFFFFF;enable-background:new    ;}
	.st8{opacity:0.25;fill-rule:evenodd;clip-rule:evenodd;fill:#FFFFFF;enable-background:new    ;}
	.st9{filter:url(#Adobe_OpacityMaskFilter_1_);}
	.st10{mask:url(#b_2_);}
	.st11{opacity:0.5;fill-rule:evenodd;clip-rule:evenodd;fill:#242A45;enable-background:new    ;}
	.st12{fill-rule:evenodd;clip-rule:evenodd;fill:#F98E5D;}
	.st13{opacity:0.25;fill-rule:evenodd;clip-rule:evenodd;fill:#242A45;enable-background:new    ;}
	.st14{fill-rule:evenodd;clip-rule:evenodd;fill:#6AC6D6;}
	.st15{fill-rule:evenodd;clip-rule:evenodd;fill:#A47ED4;}
	.st16{fill-rule:evenodd;clip-rule:evenodd;fill:#EC7878;}
</style>
<g>
	<g>
		<path id="a_1_" class="st0" d="M8,0h520c4.4,0,8,3.6,8,8v330c0,4.4-3.6,8-8,8H8c-4.4,0-8-3.6-8-8V8C0,3.6,3.6,0,8,0z"/>
	</g>
	<defs>
		<filter id="Adobe_OpacityMaskFilter" filterUnits="userSpaceOnUse" x="-3.5" y="0.2" width="547" height="59">
			<feColorMatrix  type="matrix" values="1 0 0 0 0  0 1 0 0 0  0 0 1 0 0  0 0 0 1 0"/>
		</filter>
	</defs>
	<mask maskUnits="userSpaceOnUse" x="-3.5" y="0.2" width="547" height="59" id="b_1_">
		<g class="st1">
			<path id="a_2_" class="st2" d="M8,0h520c4.4,0,8,3.6,8,8v330c0,4.4-3.6,8-8,8H8c-4.4,0-8-3.6-8-8V8C0,3.6,3.6,0,8,0z"/>
		</g>
	</mask>
	<g class="st3">
		<path class="st4" d="M-3.5,0.2h547v59h-547L-3.5,0.2z"/>
		<g transform="translate(22.47 14.197)">
			<circle class="st5" cx="16" cy="16" r="16"/>
			<circle class="st6" cx="477" cy="16" r="16"/>
			<g transform="translate(47 6)">
				<path class="st7" d="M3,0h114c1.7,0,3,1.3,3,3l0,0c0,1.7-1.3,3-3,3H3C1.3,6,0,4.7,0,3l0,0C0,1.3,1.3,0,3,0z"/>
				<path class="st8" d="M3,14h58c1.7,0,3,1.3,3,3l0,0c0,1.7-1.3,3-3,3H3c-1.7,0-3-1.3-3-3l0,0C0,15.3,1.3,14,3,14z"/>
			</g>
		</g>
	</g>
	<defs>
		<filter id="Adobe_OpacityMaskFilter_1_" filterUnits="userSpaceOnUse" x="57" y="93" width="423" height="316">
			<feColorMatrix  type="matrix" values="1 0 0 0 0  0 1 0 0 0  0 0 1 0 0  0 0 0 1 0"/>
		</filter>
	</defs>
	<mask maskUnits="userSpaceOnUse" x="57" y="93" width="423" height="316" id="b_2_">
		<g class="st9">
			<path id="a_3_" class="st2" d="M8,0h520c4.4,0,8,3.6,8,8v330c0,4.4-3.6,8-8,8H8c-4.4,0-8-3.6-8-8V8C0,3.6,3.6,0,8,0z"/>
		</g>
	</mask>
	<g class="st10">
		<g transform="translate(57 93)">
			<path class="st2" d="M8,0h245c4.4,0,8,3.6,8,8v300c0,4.4-3.6,8-8,8H8c-4.4,0-8-3.6-8-8V8C0,3.6,3.6,0,8,0z"/>
			<path class="st2" d="M303,0h112c4.4,0,8,3.6,8,8v300c0,4.4-3.6,8-8,8H303c-4.4,0-8-3.6-8-8V8C295,3.6,298.6,0,303,0z"/>
			<path class="st11" d="M81.5,38.2h114c1.7,0,3,1.3,3,3l0,0c0,1.7-1.3,3-3,3h-114c-1.7,0-3-1.3-3-3l0,0
				C78.5,39.5,79.8,38.2,81.5,38.2z"/>
		</g>
	</g>
	<g transform="translate(88.47 115.197)">
		<circle class="st12" cx="16" cy="26" r="16"/>
		<path class="st13" d="M287,0h82c1.7,0,3,1.3,3,3l0,0c0,1.7-1.3,3-3,3h-82c-1.7,0-3-1.3-3-3l0,0C284,1.3,285.3,0,287,0z"/>
		<path class="st13" d="M287,20h82c1.7,0,3,1.3,3,3l0,0c0,1.7-1.3,3-3,3h-82c-1.7,0-3-1.3-3-3l0,0C284,21.3,285.3,20,287,20z"/>
		<path class="st13" d="M287,40h82c1.7,0,3,1.3,3,3l0,0c0,1.7-1.3,3-3,3h-82c-1.7,0-3-1.3-3-3l0,0C284,41.3,285.3,40,287,40z"/>
		<path class="st13" d="M287,60h82c1.7,0,3,1.3,3,3l0,0c0,1.7-1.3,3-3,3h-82c-1.7,0-3-1.3-3-3l0,0C284,61.3,285.3,60,287,60z"/>
		<path class="st13" d="M287,94h82c1.7,0,3,1.3,3,3l0,0c0,1.7-1.3,3-3,3h-82c-1.7,0-3-1.3-3-3l0,0C284,95.3,285.3,94,287,94z"/>
		<path class="st13" d="M287,114h82c1.7,0,3,1.3,3,3l0,0c0,1.7-1.3,3-3,3h-82c-1.7,0-3-1.3-3-3l0,0C284,115.3,285.3,114,287,114z"/>
		<path class="st13" d="M287,134h82c1.7,0,3,1.3,3,3l0,0c0,1.7-1.3,3-3,3h-82c-1.7,0-3-1.3-3-3l0,0C284,135.3,285.3,134,287,134z"/>
		<path class="st13" d="M50,30h58c1.7,0,3,1.3,3,3l0,0c0,1.7-1.3,3-3,3H50c-1.7,0-3-1.3-3-3l0,0C47,31.3,48.3,30,50,30z"/>
	</g>
	<g transform="translate(88.47 181.197)">
		<circle class="st14" cx="16" cy="16" r="16"/>
		<path class="st11" d="M50,6h114c1.7,0,3,1.3,3,3l0,0c0,1.7-1.3,3-3,3H50c-1.7,0-3-1.3-3-3l0,0C47,7.3,48.3,6,50,6z"/>
		<path class="st13" d="M50,20h58c1.7,0,3,1.3,3,3l0,0c0,1.7-1.3,3-3,3H50c-1.7,0-3-1.3-3-3l0,0C47,21.3,48.3,20,50,20z"/>
	</g>
	<g transform="translate(88.47 237.197)">
		<circle class="st15" cx="16" cy="16" r="16"/>
		<path class="st11" d="M50,6h114c1.7,0,3,1.3,3,3l0,0c0,1.7-1.3,3-3,3H50c-1.7,0-3-1.3-3-3l0,0C47,7.3,48.3,6,50,6z"/>
		<path class="st13" d="M50,20h58c1.7,0,3,1.3,3,3l0,0c0,1.7-1.3,3-3,3H50c-1.7,0-3-1.3-3-3l0,0C47,21.3,48.3,20,50,20z"/>
	</g>
	<g transform="translate(88.47 293.197)">
		<circle class="st16" cx="16" cy="16" r="16"/>
		<path class="st11" d="M50,6h114c1.7,0,3,1.3,3,3l0,0c0,1.7-1.3,3-3,3H50c-1.7,0-3-1.3-3-3l0,0C47,7.3,48.3,6,50,6z"/>
		<path class="st13" d="M50,20h58c1.7,0,3,1.3,3,3l0,0c0,1.7-1.3,3-3,3H50c-1.7,0-3-1.3-3-3l0,0C47,21.3,48.3,20,50,20z"/>
	</g>
</g>
</svg>
